# xmcd
#
# Track frame offsets: 
#        150
#        13802
#        30572
#        45111
#        58080
#        68961
#        85996
#        98005
#        112570
#        133287
#        152843
#        171029
#        193206
#        205835
#        220017
#        225449
#        256498
#        298851
#
# Disc length: 4208 seconds
#
# Revision: 1
# Processed by: cddbd v1.5.2PL0 Copyright (c) Steve Scherf et al.
# Submitted via: ExactAudioCopy v0.95b3
#
DISCID=f7106e12
DTITLE=The Jesus and Mary Chain - Honey's Dead (2011 Expanded Edition Di
DTITLE=sc 2)
DYEAR=1992
DGENRE=Indie
TTITLE0=Heat
TTITLE1=Guitarman
TTITLE2=Why'd You Want Me
TTITLE3=Sometimes
TTITLE4=Teenage Lust (Acoustic Version)
TTITLE5=Reverberation (Doubt)
TTITLE6=Don't Come Down
TTITLE7=Why'd You Want Me (Alternate Version)
TTITLE8=Catchfire
TTITLE9=Blues From A Gun
TTITLE10=Head On
TTITLE11=Reverence
TTITLE12=Far Gone And Out
TTITLE13=Halfway To Crazy
TTITLE14=Frequency
TTITLE15=Sidewalking
TTITLE16=Jim and William Talk To Mark Goodier About Honey's Dead
TTITLE17=Jim and William Talk To Tommy Vance About Lollapalooza
EXTD=
EXTT0=
EXTT1=
EXTT2=
EXTT3=
EXTT4=
EXTT5=
EXTT6=
EXTT7=
EXTT8=
EXTT9=
EXTT10=
EXTT11=
EXTT12=
EXTT13=
EXTT14=
EXTT15=
EXTT16=
EXTT17=
PLAYORDER=
